<?xml version="1.0" encoding="UTF-8"?>
<svg width="427px" height="473px" viewBox="0 0 427 473" version="1.1" xmlns="http://www.w3.org/2000/svg" xmlns:xlink="http://www.w3.org/1999/xlink">
    <title>Group</title>
    <g id="Page-1" stroke="none" stroke-width="1" fill="none" fill-rule="evenodd">
        <g id="Group">
            <path d="M215.918637,18.4753378 C214.413507,17.6434625 212.586493,17.6434625 211.081363,18.4753378 L17.5813628,125.421474 C16.7850202,125.861607 16.1396795,126.500691 15.6934245,127.257211 C15.2471694,128.013732 15,128.887689 15,129.797567 L15,336.426573 C15,337.321506 15.2391854,338.182308 15.6723507,338.93086 C16.105516,339.679411 16.7326611,340.315712 17.5085806,340.761643 L214.819216,454.15856 C215.603196,454.609123 216.478275,454.830458 217.351486,454.823323 C218.224698,454.816188 219.096043,454.580584 219.872557,454.117271 L409.561922,340.937459 C411.073934,340.035303 412,338.404378 412,336.643678 L412,129.797567 C412,128.887689 411.752831,128.013732 411.306576,127.257211 C410.86032,126.500691 410.21498,125.861607 409.418637,125.421474 L215.918637,18.4753378 Z" id="Rectangle" stroke="#78CB2D" stroke-width="30"></path>
            <text id="L2J" font-family="Nunito-Bold, Nunito" font-size="170" font-weight="bold" fill="#78CB2D">
                <tspan x="85.31" y="327">L2J</tspan>
            </text>
            <text id="NODE-API" font-family="Nunito-Bold, Nunito" font-size="40" font-weight="bold" letter-spacing="5.71428571" fill="#78CB2D">
                <tspan x="94.6828571" y="339">NODE API</tspan>
            </text>
        </g>
    </g>
</svg>