<?xml version="1.0" encoding="UTF-8"?>
<svg width="483px" height="535px" viewBox="0 0 483 535" version="1.1" xmlns="http://www.w3.org/2000/svg" xmlns:xlink="http://www.w3.org/1999/xlink">
    <title>Group</title>
    <g id="Page-1" stroke="none" stroke-width="1" fill="none" fill-rule="evenodd">
        <g id="Group">
            <path d="M10.3259055,127.760522 L231.825906,5.34647866 C237.84619,2.01931198 245.15381,2.01931198 251.174094,5.34647866 L472.674094,127.760522 C479.045089,131.281512 483,137.985934 483,145.265147 L483,382.258543 C483,389.301537 479.295536,395.825387 473.247224,399.433944 L256.082458,528.999253 C249.870579,532.705398 242.141622,532.768546 235.870015,529.164395 L10.0347816,399.381984 C3.82716724,395.814609 -4.88611868e-14,389.201096 0,382.041442 L0,145.265147 C-7.99687388e-15,137.985934 3.95491057,131.281512 10.3259055,127.760522 Z" id="Rectangle" fill="#78CB2D"></path>
            <path d="M243.918637,49.4753378 C242.413507,48.6434625 240.586493,48.6434625 239.081363,49.4753378 L45.5813628,156.421474 C44.7850202,156.861607 44.1396795,157.500691 43.6934245,158.257211 C43.2471694,159.013732 43,159.887689 43,160.797567 L43,367.426573 C43,368.321506 43.2391854,369.182308 43.6723507,369.93086 C44.105516,370.679411 44.7326611,371.315712 45.5085806,371.761643 L242.819216,485.15856 C243.603196,485.609123 244.478275,485.830458 245.351486,485.823323 C246.224698,485.816188 247.096043,485.580584 247.872557,485.117271 L437.561922,371.937459 C439.073934,371.035303 440,369.404378 440,367.643678 L440,160.797567 C440,159.887689 439.752831,159.013732 439.306576,158.257211 C438.86032,157.500691 438.21498,156.861607 437.418637,156.421474 L243.918637,49.4753378 Z" id="Rectangle" stroke="#FFFFFF" stroke-width="30"></path>
            <text id="L2J" font-family="Nunito-Bold, Nunito" font-size="170" font-weight="bold" fill="#FFFFFF">
                <tspan x="113.31" y="358">L2J</tspan>
            </text>
            <text id="NODE-API" font-family="Nunito-Bold, Nunito" font-size="40" font-weight="bold" letter-spacing="5.71428571" fill="#FFFFFF">
                <tspan x="122.682857" y="370">NODE API</tspan>
            </text>
        </g>
    </g>
</svg>